<mxfile host="app.diagrams.net" modified="2024-03-12T07:54:57.091Z" agent="Mozilla/5.0 (Macintosh; Intel Mac OS X 10_15_7) AppleWebKit/537.36 (KHTML, like Gecko) Chrome/122.0.0.0 Safari/537.36" etag="jngR05GkCbwP-WmW0bbh" version="24.0.5" type="github">
  <diagram name="第 1 页" id="LPpcoqIUgxd-1k3hOBR2">
    <mxGraphModel dx="1247" dy="1146" grid="1" gridSize="10" guides="1" tooltips="1" connect="1" arrows="1" fold="1" page="1" pageScale="1" pageWidth="827" pageHeight="1169" math="0" shadow="0">
      <root>
        <mxCell id="0" />
        <mxCell id="1" parent="0" />
        <mxCell id="5plRjvMdxoN82TxtQ4YR-1" value="设计人员" style="shape=umlActor;verticalLabelPosition=bottom;verticalAlign=top;html=1;outlineConnect=0;" vertex="1" parent="1">
          <mxGeometry x="910" y="360" width="30" height="60" as="geometry" />
        </mxCell>
        <mxCell id="5plRjvMdxoN82TxtQ4YR-2" value="H5活动页面设计" style="ellipse;whiteSpace=wrap;html=1;" vertex="1" parent="1">
          <mxGeometry x="1053" y="360" width="100" height="60" as="geometry" />
        </mxCell>
        <mxCell id="5plRjvMdxoN82TxtQ4YR-3" value="" style="endArrow=classic;html=1;rounded=0;" edge="1" parent="1" target="5plRjvMdxoN82TxtQ4YR-2">
          <mxGeometry width="50" height="50" relative="1" as="geometry">
            <mxPoint x="940" y="390" as="sourcePoint" />
            <mxPoint x="1141" y="260" as="targetPoint" />
          </mxGeometry>
        </mxCell>
        <mxCell id="5plRjvMdxoN82TxtQ4YR-4" value="物料组件选择" style="ellipse;whiteSpace=wrap;html=1;" vertex="1" parent="1">
          <mxGeometry x="1220" y="140" width="100" height="60" as="geometry" />
        </mxCell>
        <mxCell id="5plRjvMdxoN82TxtQ4YR-5" value="物料组件拖放" style="ellipse;whiteSpace=wrap;html=1;" vertex="1" parent="1">
          <mxGeometry x="1220" y="230" width="100" height="60" as="geometry" />
        </mxCell>
        <mxCell id="5plRjvMdxoN82TxtQ4YR-6" value="设计展示效果" style="ellipse;whiteSpace=wrap;html=1;" vertex="1" parent="1">
          <mxGeometry x="1220" y="420" width="100" height="60" as="geometry" />
        </mxCell>
        <mxCell id="5plRjvMdxoN82TxtQ4YR-7" value="物料组件属性面板" style="ellipse;whiteSpace=wrap;html=1;" vertex="1" parent="1">
          <mxGeometry x="1220" y="320" width="100" height="60" as="geometry" />
        </mxCell>
        <mxCell id="5plRjvMdxoN82TxtQ4YR-8" value="设计预览" style="ellipse;whiteSpace=wrap;html=1;" vertex="1" parent="1">
          <mxGeometry x="1220" y="522" width="100" height="60" as="geometry" />
        </mxCell>
        <mxCell id="5plRjvMdxoN82TxtQ4YR-9" value="物料组件样式设计" style="ellipse;whiteSpace=wrap;html=1;" vertex="1" parent="1">
          <mxGeometry x="1430" y="240" width="100" height="60" as="geometry" />
        </mxCell>
        <mxCell id="5plRjvMdxoN82TxtQ4YR-10" value="物料组件数据设计" style="ellipse;whiteSpace=wrap;html=1;" vertex="1" parent="1">
          <mxGeometry x="1430" y="320" width="100" height="60" as="geometry" />
        </mxCell>
        <mxCell id="5plRjvMdxoN82TxtQ4YR-11" value="" style="endArrow=classic;html=1;rounded=0;entryX=0.05;entryY=0.783;entryDx=0;entryDy=0;entryPerimeter=0;" edge="1" parent="1" source="5plRjvMdxoN82TxtQ4YR-2" target="5plRjvMdxoN82TxtQ4YR-4">
          <mxGeometry width="50" height="50" relative="1" as="geometry">
            <mxPoint x="1170" y="410" as="sourcePoint" />
            <mxPoint x="1220" y="360" as="targetPoint" />
          </mxGeometry>
        </mxCell>
        <mxCell id="5plRjvMdxoN82TxtQ4YR-12" value="" style="endArrow=classic;html=1;rounded=0;exitX=1;exitY=1;exitDx=0;exitDy=0;entryX=0.02;entryY=0.35;entryDx=0;entryDy=0;entryPerimeter=0;" edge="1" parent="1" source="5plRjvMdxoN82TxtQ4YR-2" target="5plRjvMdxoN82TxtQ4YR-6">
          <mxGeometry width="50" height="50" relative="1" as="geometry">
            <mxPoint x="1170" y="410" as="sourcePoint" />
            <mxPoint x="1220" y="360" as="targetPoint" />
          </mxGeometry>
        </mxCell>
        <mxCell id="5plRjvMdxoN82TxtQ4YR-13" value="" style="endArrow=classic;html=1;rounded=0;exitX=1;exitY=0.5;exitDx=0;exitDy=0;" edge="1" parent="1" source="5plRjvMdxoN82TxtQ4YR-2">
          <mxGeometry width="50" height="50" relative="1" as="geometry">
            <mxPoint x="1170" y="410" as="sourcePoint" />
            <mxPoint x="1220" y="360" as="targetPoint" />
          </mxGeometry>
        </mxCell>
        <mxCell id="5plRjvMdxoN82TxtQ4YR-14" value="" style="endArrow=classic;html=1;rounded=0;exitX=0.99;exitY=0.4;exitDx=0;exitDy=0;exitPerimeter=0;entryX=0.05;entryY=0.667;entryDx=0;entryDy=0;entryPerimeter=0;" edge="1" parent="1" source="5plRjvMdxoN82TxtQ4YR-2" target="5plRjvMdxoN82TxtQ4YR-5">
          <mxGeometry width="50" height="50" relative="1" as="geometry">
            <mxPoint x="1170" y="410" as="sourcePoint" />
            <mxPoint x="1220" y="360" as="targetPoint" />
          </mxGeometry>
        </mxCell>
        <mxCell id="5plRjvMdxoN82TxtQ4YR-15" value="" style="endArrow=classic;html=1;rounded=0;exitX=0.5;exitY=1;exitDx=0;exitDy=0;entryX=0;entryY=0;entryDx=0;entryDy=0;" edge="1" parent="1" source="5plRjvMdxoN82TxtQ4YR-2" target="5plRjvMdxoN82TxtQ4YR-8">
          <mxGeometry width="50" height="50" relative="1" as="geometry">
            <mxPoint x="1170" y="410" as="sourcePoint" />
            <mxPoint x="1210" y="530" as="targetPoint" />
          </mxGeometry>
        </mxCell>
        <mxCell id="5plRjvMdxoN82TxtQ4YR-16" value="" style="endArrow=classic;html=1;rounded=0;entryX=0;entryY=0.5;entryDx=0;entryDy=0;exitX=0.94;exitY=0.217;exitDx=0;exitDy=0;exitPerimeter=0;" edge="1" parent="1" source="5plRjvMdxoN82TxtQ4YR-7" target="5plRjvMdxoN82TxtQ4YR-9">
          <mxGeometry width="50" height="50" relative="1" as="geometry">
            <mxPoint x="1170" y="410" as="sourcePoint" />
            <mxPoint x="1220" y="360" as="targetPoint" />
          </mxGeometry>
        </mxCell>
        <mxCell id="5plRjvMdxoN82TxtQ4YR-17" value="" style="endArrow=classic;html=1;rounded=0;" edge="1" parent="1" source="5plRjvMdxoN82TxtQ4YR-7" target="5plRjvMdxoN82TxtQ4YR-10">
          <mxGeometry width="50" height="50" relative="1" as="geometry">
            <mxPoint x="1170" y="410" as="sourcePoint" />
            <mxPoint x="1220" y="360" as="targetPoint" />
          </mxGeometry>
        </mxCell>
        <mxCell id="5plRjvMdxoN82TxtQ4YR-18" value="协同设计" style="ellipse;whiteSpace=wrap;html=1;" vertex="1" parent="1">
          <mxGeometry x="1220" y="620" width="100" height="60" as="geometry" />
        </mxCell>
        <mxCell id="5plRjvMdxoN82TxtQ4YR-19" value="" style="endArrow=classic;html=1;rounded=0;exitX=0.327;exitY=0.986;exitDx=0;exitDy=0;entryX=0;entryY=0.5;entryDx=0;entryDy=0;exitPerimeter=0;" edge="1" parent="1" source="5plRjvMdxoN82TxtQ4YR-2" target="5plRjvMdxoN82TxtQ4YR-18">
          <mxGeometry width="50" height="50" relative="1" as="geometry">
            <mxPoint x="1120" y="380" as="sourcePoint" />
            <mxPoint x="1245" y="541" as="targetPoint" />
          </mxGeometry>
        </mxCell>
        <mxCell id="5plRjvMdxoN82TxtQ4YR-20" value="在线设计人员" style="ellipse;whiteSpace=wrap;html=1;" vertex="1" parent="1">
          <mxGeometry x="1443" y="550" width="111" height="60" as="geometry" />
        </mxCell>
        <mxCell id="5plRjvMdxoN82TxtQ4YR-21" value="协同设计人员鼠标位置" style="ellipse;whiteSpace=wrap;html=1;" vertex="1" parent="1">
          <mxGeometry x="1443" y="620" width="130" height="60" as="geometry" />
        </mxCell>
        <mxCell id="5plRjvMdxoN82TxtQ4YR-22" value="协同设计人员编辑位置" style="ellipse;whiteSpace=wrap;html=1;" vertex="1" parent="1">
          <mxGeometry x="1443" y="687" width="140" height="60" as="geometry" />
        </mxCell>
        <mxCell id="5plRjvMdxoN82TxtQ4YR-23" value="协同数据实时更新" style="ellipse;whiteSpace=wrap;html=1;" vertex="1" parent="1">
          <mxGeometry x="1443" y="760" width="111" height="60" as="geometry" />
        </mxCell>
        <mxCell id="5plRjvMdxoN82TxtQ4YR-24" value="" style="endArrow=classic;html=1;rounded=0;exitX=1;exitY=0;exitDx=0;exitDy=0;entryX=0;entryY=0.5;entryDx=0;entryDy=0;" edge="1" parent="1" source="5plRjvMdxoN82TxtQ4YR-18" target="5plRjvMdxoN82TxtQ4YR-20">
          <mxGeometry width="50" height="50" relative="1" as="geometry">
            <mxPoint x="1751" y="840" as="sourcePoint" />
            <mxPoint x="1801" y="790" as="targetPoint" />
          </mxGeometry>
        </mxCell>
        <mxCell id="5plRjvMdxoN82TxtQ4YR-25" value="" style="endArrow=classic;html=1;rounded=0;exitX=1;exitY=0.5;exitDx=0;exitDy=0;entryX=0;entryY=0.5;entryDx=0;entryDy=0;" edge="1" parent="1" source="5plRjvMdxoN82TxtQ4YR-18" target="5plRjvMdxoN82TxtQ4YR-21">
          <mxGeometry width="50" height="50" relative="1" as="geometry">
            <mxPoint x="1751" y="840" as="sourcePoint" />
            <mxPoint x="1801" y="790" as="targetPoint" />
          </mxGeometry>
        </mxCell>
        <mxCell id="5plRjvMdxoN82TxtQ4YR-26" value="" style="endArrow=classic;html=1;rounded=0;" edge="1" parent="1" target="5plRjvMdxoN82TxtQ4YR-22">
          <mxGeometry width="50" height="50" relative="1" as="geometry">
            <mxPoint x="1321" y="650" as="sourcePoint" />
            <mxPoint x="1440" y="580" as="targetPoint" />
          </mxGeometry>
        </mxCell>
        <mxCell id="5plRjvMdxoN82TxtQ4YR-27" value="" style="endArrow=classic;html=1;rounded=0;exitX=1;exitY=1;exitDx=0;exitDy=0;entryX=0;entryY=0.5;entryDx=0;entryDy=0;" edge="1" parent="1" source="5plRjvMdxoN82TxtQ4YR-18" target="5plRjvMdxoN82TxtQ4YR-23">
          <mxGeometry width="50" height="50" relative="1" as="geometry">
            <mxPoint x="1331" y="660" as="sourcePoint" />
            <mxPoint x="1440" y="651" as="targetPoint" />
          </mxGeometry>
        </mxCell>
      </root>
    </mxGraphModel>
  </diagram>
</mxfile>
